# xmcd
#
# Track frame offsets: 
#        150
#        6292
#        19310
#        44952
#        65427
#        101425
#        125095
#        145157
#        170122
#        198497
#        222960
#
# Disc length: 3354 seconds
#
# Revision: 0
# Processed by: cddbd v1.5.2PL0 Copyright (c) Steve Scherf et al.
# Submitted via: ExactAudioCopy v1.0b3
#
DISCID=ac0d180b
DTITLE=Duy Khanh - Nhung Manh Tinh Que
DYEAR=1992
DGENRE=
TTITLE0=Hoang Hoa - Loi gioi thieu
TTITLE1=Duy Khanh, Thanh Huyen - Tia em Ma em
TTITLE2=Duy Khanh, Huong Lan - Tinh lua duyen trang
TTITLE3=Duy Khanh, Thanh Tuyen - Tinh ca tren lua
TTITLE4=Duy Khanh, Ha Thanh - Vo chong que
TTITLE5=Duy Khanh, Hong Hanh - Dam cuoi tren duong que
TTITLE6=Duy Khanh, Ha Thanh - Duyen tinh
TTITLE7=Duy Khanh, Huong Lan - Duong ve hai thon
TTITLE8=Duy Khanh, Ha Thanh - Nu tam Xuan
TTITLE9=Duy Khanh, Thanh Tuyen - Gao trang trang thanh
TTITLE10=Duy Khanh, Thanh Tuyen - Tinh ngheo
EXTD=
EXTT0=
EXTT1=
EXTT2=
EXTT3=
EXTT4=
EXTT5=
EXTT6=
EXTT7=
EXTT8=
EXTT9=
EXTT10=
PLAYORDER=
